<svg xmlns="http://www.w3.org/2000/svg" viewBox="680 320 1130 870">
  <path fill="#de5e2f" d="m1782.57,913.29c-55.48-57.76-132.9-94.61-219-97.29-3.4-.13-6.86-.19-10.29-.19-8,0-15.93.29-23.77.91-58.15,4.24-111.9,24.09-157.06,55.33-22.43,15.54-42.77,33.87-60.41,54.49-.03.03-.03.06-.07.1-10.81,12.56-20.57,25.97-29.26,40.12,0,.03-.03.06-.07.1-11.72,13.73-24.62,26.45-38.53,38.01-8.26,6.86-16.85,13.31-25.76,19.3-51.07,34.45-112.75,54.56-179.2,54.56l-35.33-1.62c-7.94-.58-15.97-.91-24.07-.91-4.24,0-8.46.1-12.64.26-.03,0-.07,0-.1.03-54.82,2.2-105.93,18.68-149.61,45.78-8.62,5.31-16.91,11.07-24.91,17.19-2.28,1.78-4.64,3.5-7.05,5.15-15.9,10.94-33.86,19.2-53.22,24.02,5.26-9.39,9.6-19.33,12.9-29.75.52-1.65,1.01-3.3,1.5-4.99,5.75-2.62,11.4-5.44,16.95-8.42,9.5-5.05,18.68-10.59,27.56-16.55,3.3-2.23,6.56-4.5,9.8-6.9,17.18-12.46,33.04-26.61,47.41-42.19,3.56-3.89,7.02-7.87,10.35-11.92,4.47-5.31,8.72-10.78,12.8-16.38,3.75-5.15,7.31-10.39,10.74-15.77,31.38-38.69,70.04-71.81,114.02-95.51,10.68-6.22,25.6-12.92,36.9-18.13,6.24-2.36,15.25-5.76,21.49-8.26,2.15-.94,6.47-2.49,8.72-3.11,17.7-5.96,35.69-10.72,53.78-15.51-12.51.74-25.21,1-37.62,2.88-7.74,1.07-15.71,2.46-23.44,3.69-8.52,1.97-19.33,4.6-27.79,6.8-2.68.84-19.76,6.61-22.69,7.54-8.39,2.75-18.35,7.71-26.58,11.07-5.91,2.62-19.62,10.39-25.57,13.4-13,8.09-26.19,16.74-38.3,26.39,8.1-23.93,13.32-49.12,15.38-75.21,16.13-6.57,32.69-12.01,49.6-16.19,11.92-3.33,28.05-6.12,40.29-8.35,6.66-.74,16.23-1.78,22.89-2.66,2.32-.36,6.89-.78,9.21-.84,18.68-1.36,37.29-1.46,56-1.59-12.28-2.43-24.65-5.34-37.13-6.6-7.77-.87-15.84-1.52-23.64-2.27-8.72-.19-19.85-.36-28.6-.36-8.98.84-24.55,1.23-33.4,2.78-4.73.74-14.3,2.27-19,2.98-6.37,1.07-21.65,5.18-28.15,6.64-2.35.74-4.7,1.49-7.05,2.23v-.87c0-26.94-3.4-53.1-9.83-78.06,19.17-.39,38.33.71,57.31,3.4,12.31,1.33,28.34,4.79,40.52,7.28,6.43,1.81,15.71,4.4,22.2,6.09,2.29.52,6.66,1.84,8.85,2.65,17.8,5.7,35.1,12.56,52.51,19.39-10.48-6.8-20.83-14.12-31.93-19.95-6.86-3.72-14.07-7.32-21.03-10.91-8-3.43-18.25-7.74-26.35-11.01-2.68-.91-19.85-6.38-22.76-7.35-8.42-2.75-19.4-4.66-27.98-6.86-6.33-1.36-22.04-3.27-28.6-4.34-9.5-.78-19.56-1.39-29.58-1.59-7.25-22.6-20.54-57.6-23.35-64.88-.33-.87-.52-1.36-.52-1.36-.59-1.72-1.21-3.4-1.86-5.08-.65-1.68-1.31-3.37-1.96-5.08-.23-.58-.42-1.17-.65-1.75,39.61,5.41,78.4,16.71,114.22,34.25,11.3,5.08,25.44,13.31,36.24,19.43,5.52,3.72,13.52,9.07,19.2,12.66,1.96,1.2,5.75,3.79,7.54,5.24,15.15,10.91,29.42,22.76,43.82,34.64-7.84-9.71-15.38-19.85-24.07-28.82-5.35-5.63-11.1-11.3-16.59-16.87-6.53-5.73-14.92-12.98-21.58-18.58-2.25-1.68-16.88-12.17-19.33-14.02-7.12-5.21-16.95-10.43-24.42-15.15-5.58-3.27-19.92-9.91-25.83-12.98-17.4-7.25-36.44-14.44-54.82-18.71-14.11-3.46-28.34-6.02-42.68-7.77v-.03c-5.71-22.21-8.72-45.46-8.72-69.39,0-4.82.13-9.58.39-14.34.75.16,1.47.36,2.22.52,58.61,13.86,114.68,40.6,160.59,79.42,9.7,7.64,21.39,19.04,30.33,27.62,4.47,4.95,10.91,12.04,15.51,16.9,1.63,1.65,4.64,5.12,6.04,6.96,11.98,14.25,22.89,29.2,33.93,44.23-5.19-11.33-9.99-22.99-16.23-33.8-3.79-6.77-7.93-13.66-11.92-20.37-4.9-7.16-11.27-16.22-16.36-23.28-5.88-6.73-15.28-19.07-21.71-25.32-3.33-3.37-10.15-10.2-13.49-13.57-4.6-4.53-16.85-14.47-21.84-18.84-15.28-11.4-31.51-22.7-48.52-31.47-30.3-15.99-62.66-27.46-96.06-34.77,2.22-15.35,5.68-30.31,10.32-44.75,2.71-8.51,5.84-16.87,9.34-25,11.98,4.31,23.8,9.07,35.46,14.28,54.89,24.61,104.88,61.36,142.56,108.08,8.07,9.33,17.37,22.7,24.55,32.8,3.43,5.7,8.39,13.89,11.98,19.52,1.27,1.91,3.59,5.86,4.6,7.93,9.04,16.22,16.95,32.96,24.88,49.76-2.94-12.08-5.42-24.41-9.47-36.2-2.45-7.38-5.22-14.89-7.84-22.24-3.46-7.93-7.97-18.03-11.62-25.9-4.51-7.74-11.4-21.63-16.52-28.91-2.61-3.95-8.03-11.95-10.65-15.9-3.66-5.28-13.81-17.32-17.86-22.57-12.86-14.08-26.61-28.17-41.66-39.99-34.97-28.01-74.91-49.05-117.35-63.53,15.44-28.56,35.75-54.14,59.82-75.7,18.12,11.59,35.56,24.22,52.15,37.98,46.17,38.33,84.34,87.06,107.95,142.14,5.26,11.14,10.58,26.52,14.73,38.14,1.76,6.38,4.34,15.61,6.27,21.98.72,2.2,1.86,6.61,2.29,8.9,4.31,18.03,7.35,36.26,10.45,54.56.46-12.4,1.4-24.96.69-37.4-.36-7.74-.98-15.74-1.5-23.51-1.18-8.58-2.78-19.49-4.15-28.04-2.25-8.68-5.09-23.86-8.07-32.28-1.47-4.5-4.51-13.63-5.97-18.13-2.06-6.09-8.56-20.4-11.04-26.52-8.55-16.93-18.02-34.29-29.29-49.63-30.4-42.32-69.84-77.35-114.45-104.55,29.49-21.92,63.41-38.24,100.24-47.43,36.6,51.87,64.75,110.05,82.45,172.57,13.97,49.34,21.45,101.37,21.45,155.15,0,5.7-.1,11.36-.26,17.03v.03c-1.5,50.67-9.63,99.69-23.57,146.22-1.34,3.4-2.42,6.9-3.27,10.49-1.4,5.86-2.12,11.98-2.12,18.26,0,11.75,2.55,22.86,7.15,32.9,12.64,27.72,40.75,47.01,73.44,47.01,22.11,0,42.06-8.81,56.62-23.05l.1-.1c.1-.1.16-.16.26-.26,1.11-1.23,2.25-2.43,3.4-3.63,15.84-16.38,33.44-31.02,52.57-43.61,5.88-3.89,11.89-7.58,18.06-11.07h.03c10.29-43.77,49.86-76.38,97.14-76.38,21.19,0,40.82,6.54,56.95,17.74h.03c7.67,5.31,14.53,11.62,20.41,18.81h.03c99.39,6.28,186.09,58.83,238.5,136.15Z"/>
</svg>
